<svg xmlns="http://www.w3.org/2000/svg" version="1.1" xmlns:xlink="http://www.w3.org/1999/xlink" xmlns:svgjs="http://svgjs.dev/svgjs" width="1900" height="1080" preserveAspectRatio="none" viewBox="0 0 1900 1080"><g mask="url(&quot;#SvgjsMask1029&quot;)" fill="none"><rect width="1900" height="1080" x="0" y="0" fill="rgba(15, 23, 42, 1)"></rect><path d="M0,749.183C135.428,777.886,245.51,638.079,361.741,562.88C477.591,487.927,642.614,443.152,678.812,310.003C715.642,174.531,570.819,58.904,535.706,-77.023C505.924,-192.313,570.169,-336.584,489.223,-423.914C408.055,-511.484,262.935,-473.01,146.052,-497.408C40.505,-519.44,-56.995,-568.075,-164.542,-560.379C-290.581,-551.359,-424.766,-533.874,-519.106,-449.808C-617.657,-361.99,-678.245,-230.135,-683.18,-98.226C-687.932,28.801,-623.165,148.57,-545.249,249.007C-477.661,336.131,-356.266,353.385,-275.01,427.924C-168.985,525.184,-140.751,719.351,0,749.183" fill="#0c1222"></path><path d="M1900 1604.196C2025.6779999999999 1610.998 2149.579 1696.414 2266.965 1651.008 2388.727 1603.909 2495.003 1491.656 2521.456 1363.81 2547.367 1238.585 2431.184 1132.127 2399.99 1008.112 2373.176 901.509 2424.305 771.133 2351.632 688.659 2278.958 606.184 2145.558 633.789 2040.8 600.48 1932.856 566.158 1839.672 481.08900000000006 1726.752 489.97 1604.596 499.577 1490.063 562.949 1404.368 650.5319999999999 1315.819 741.0319999999999 1258.8139999999999 859.9010000000001 1242.008 985.395 1225.2930000000001 1110.207 1254.202 1236.589 1310.817 1349.071 1366.0549999999998 1458.818 1444.958 1563.799 1557.7060000000001 1612.62 1664.606 1658.909 1783.6779999999999 1597.9 1900 1604.196" fill="#121c32"></path></g><defs><mask id="SvgjsMask1029"><rect width="1900" height="1080" fill="#ffffff"></rect></mask></defs></svg>