<svg xmlns="http://www.w3.org/2000/svg" version="1.1" xmlns:xlink="http://www.w3.org/1999/xlink" xmlns:svgjs="http://svgjs.dev/svgjs" width="1900" height="1080" preserveAspectRatio="none" viewBox="0 0 1900 1080"><g mask="url(&quot;#SvgjsMask1087&quot;)" fill="none"><rect width="1900" height="1080" x="0" y="0" fill="rgba(15, 23, 42, 1)"></rect><path d="M443.75 159.77L519.97 159.77L519.97 222.3L443.75 222.3z" fill="rgba(254, 197, 54, 0.27)"></path><path d="M-85.55 430.09 a103.99 103.99 0 1 0 207.98 0 a103.99 103.99 0 1 0 -207.98 0z" fill="rgba(111, 142, 255, 0.33)"></path><path d="M15.61 732.87L64.89 732.87L64.89 782.15L15.61 782.15z" stroke="rgba(111, 142, 255, 0.33)"></path><path d="M301.33 1032.88L324.07 1032.88L324.07 1117.53L301.33 1117.53z" fill="rgba(254, 197, 54, 0.27)"></path><path d="M1349.85 1014.13L1403.27 1014.13L1403.27 1067.55L1349.85 1067.55z" fill="rgba(254, 197, 54, 0.27)"></path><path d="M1857.87 424.45a0.34 0.34 0 1 0-0.67 0.12z" stroke="rgba(43, 183, 157, 0.35)"></path><path d="M164.48 891.55 a64.54 64.54 0 1 0 129.08 0 a64.54 64.54 0 1 0 -129.08 0z" fill="rgba(111, 142, 255, 0.33)"></path><path d="M172.95 124.62a82.57 82.57 0 1 0-162.37 30.1z" stroke="rgba(43, 183, 157, 0.35)"></path><path d="M1437.86 644.1 a75.43 75.43 0 1 0 150.86 0 a75.43 75.43 0 1 0 -150.86 0z" stroke="rgba(254, 197, 54, 0.27)"></path><path d="M422.37 302.4a14.24 14.24 0 1 0-25.87-11.92z" fill="rgba(254, 197, 54, 0.27)"></path><path d="M1364.31 1040.47a27.74 27.74 0 1 0 44.67 32.91z" stroke="rgba(254, 197, 54, 0.27)"></path><path d="M1468.25 870.07 a6.94 6.94 0 1 0 13.88 0 a6.94 6.94 0 1 0 -13.88 0z" stroke="rgba(254, 197, 54, 0.27)"></path><path d="M691.87 702.39L772.57 702.39L772.57 773.73L691.87 773.73z" fill="rgba(43, 183, 157, 0.35)"></path><path d="M664.99 120.55L727.66 120.55L727.66 185.48L664.99 185.48z" fill="rgba(111, 142, 255, 0.33)"></path><path d="M1403.73 560.94L1443.02 560.94L1443.02 600.23L1403.73 600.23z" fill="rgba(111, 142, 255, 0.33)"></path><path d="M738.6 910.45L782.7 910.45L782.7 954.55L738.6 954.55z" fill="rgba(254, 197, 54, 0.27)"></path><path d="M1542.73 506.69 a87.78 87.78 0 1 0 175.56 0 a87.78 87.78 0 1 0 -175.56 0z" fill="rgba(254, 197, 54, 0.27)"></path><path d="M13.23 1043.22L119.9 1043.22L119.9 1149.89L13.23 1149.89z" fill="rgba(111, 142, 255, 0.33)"></path><path d="M587.39 147.18 a63.69 63.69 0 1 0 127.38 0 a63.69 63.69 0 1 0 -127.38 0z" fill="rgba(254, 197, 54, 0.27)"></path><path d="M642.21 103.29L735.88 103.29L735.88 176.67L642.21 176.67z" fill="rgba(43, 183, 157, 0.35)"></path><path d="M369.08 311.75 a35.75 35.75 0 1 0 71.5 0 a35.75 35.75 0 1 0 -71.5 0z" fill="rgba(111, 142, 255, 0.33)"></path><path d="M929.38 171.68a13.85 13.85 0 1 0 5.63 27.12z" fill="rgba(111, 142, 255, 0.33)"></path></g><defs><mask id="SvgjsMask1087"><rect width="1900" height="1080" fill="#ffffff"></rect></mask></defs></svg>