<svg xmlns="http://www.w3.org/2000/svg" version="1.1" xmlns:xlink="http://www.w3.org/1999/xlink" xmlns:svgjs="http://svgjs.dev/svgjs" width="1440" height="560" preserveAspectRatio="none" viewBox="0 0 1440 560"><g mask="url(&quot;#SvgjsMask1419&quot;)" fill="none"><rect width="1440" height="560" x="0" y="0" fill="rgba(15, 23, 42, 1)"></rect><path d="M1440 0L1344.57 0L1440 122.25z" fill="rgba(255, 255, 255, .1)"></path><path d="M1344.57 0L1440 122.25L1440 203.65L955.53 0z" fill="rgba(255, 255, 255, .075)"></path><path d="M955.53 0L1440 203.65L1440 255.81L389.7099999999999 0z" fill="rgba(255, 255, 255, .05)"></path><path d="M389.71000000000004 0L1440 255.81L1440 287.22L297.69000000000005 0z" fill="rgba(255, 255, 255, .025)"></path><path d="M0 560L108 560L0 317.37z" fill="rgba(0, 0, 0, .1)"></path><path d="M0 317.37L108 560L426.43 560L0 233.46z" fill="rgba(0, 0, 0, .075)"></path><path d="M0 233.46000000000004L426.43 560L1020.24 560L0 196.00000000000003z" fill="rgba(0, 0, 0, .05)"></path><path d="M0 196.00000000000006L1020.24 560L1056.14 560L0 103.69000000000005z" fill="rgba(0, 0, 0, .025)"></path></g><defs><mask id="SvgjsMask1419"><rect width="1440" height="560" fill="#ffffff"></rect></mask></defs></svg>